<?xml version="1.0" standalone="no"?>
<!DOCTYPE svg PUBLIC "-//W3C//DTD SVG 20010904//EN"
 "http://www.w3.org/TR/2001/REC-SVG-20010904/DTD/svg10.dtd">
<svg version="1.0" xmlns="http://www.w3.org/2000/svg"
 width="249.000000pt" height="249.000000pt" viewBox="0 0 249.000000 249.000000"
 preserveAspectRatio="xMidYMid meet">
<metadata>
Created by potrace 1.11, written by Peter Selinger 2001-2013
</metadata>
<g transform="translate(0.000000,249.000000) scale(0.100000,-0.100000)"
fill="#000000" stroke="none">
<path d="M1230 2450 c-7 -25 -18 -51 -23 -57 -6 -8 -6 -18 0 -25 11 -14 29
-86 38 -158 6 -42 5 -43 -7 -20 -9 17 -23 26 -46 28 -26 3 -34 -1 -44 -23 -10
-22 -8 -33 9 -68 20 -41 20 -43 2 -75 -10 -18 -18 -34 -18 -37 0 -3 -3 -24 -6
-48 -5 -31 -1 -60 14 -105 17 -50 20 -70 12 -98 -5 -20 -7 -42 -5 -49 3 -7 1
-23 -6 -34 -6 -12 -15 -49 -20 -84 -4 -34 -19 -125 -33 -202 -21 -118 -29
-142 -48 -157 -13 -10 -29 -22 -36 -28 -7 -6 -162 -11 -397 -12 l-386 -3 292
-215 c160 -118 297 -219 305 -225 10 -8 -9 -83 -101 -380 -63 -203 -113 -372
-111 -373 2 -2 144 102 315 232 l312 236 27 -19 c14 -11 156 -116 316 -235
159 -118 291 -213 293 -211 3 3 -203 672 -225 730 -2 6 134 112 302 235 l305
225 -404 3 -404 2 -6 33 c-3 17 -10 79 -16 137 -7 58 -15 107 -18 110 -4 3
-13 27 -20 55 -15 55 -20 46 62 110 25 20 30 30 28 63 -3 38 -1 40 33 46 19 4
35 9 35 12 0 29 -80 117 -143 159 -43 27 -70 80 -62 118 10 51 6 97 -14 157
-27 79 -33 104 -45 190 -4 25 -13 50 -20 55 -8 6 -16 19 -18 30 -3 14 -8 7
-18 -25z m95 -970 c15 -17 41 -113 49 -180 4 -38 1 -51 -18 -73 -23 -27 -27
-28 -113 -25 -88 3 -88 3 -91 31 -7 63 57 289 97 343 16 22 16 22 39 -29 12
-28 29 -58 37 -67z m-208 -442 c-3 -8 -6 -5 -6 6 -1 11 2 17 5 13 3 -3 4 -12
1 -19z m90 -40 c-2 -13 -4 -3 -4 22 0 25 2 35 4 23 2 -13 2 -33 0 -45z m95 22
c2 -22 0 -40 -4 -40 -5 0 -8 18 -8 40 0 22 2 40 4 40 2 0 6 -18 8 -40z m115
-22 c-2 -13 -4 -3 -4 22 0 25 2 35 4 23 2 -13 2 -33 0 -45z m173 21 c0 -10 -4
-20 -9 -23 -5 -4 -7 3 -4 14 3 11 -1 28 -8 38 -13 15 -12 16 4 3 9 -7 17 -22
17 -32z m137 19 c-3 -8 -6 -5 -6 6 -1 11 2 17 5 13 3 -3 4 -12 1 -19z m-654
-20 c10 -16 14 -28 9 -28 -8 0 -32 43 -32 57 0 7 1 6 23 -29z m623 0 l29 -33
-32 29 c-31 28 -38 36 -30 36 2 0 16 -15 33 -32z m-172 -28 c10 -13 9 -13 -6
-1 -10 7 -17 23 -17 35 1 20 2 20 6 1 3 -11 10 -27 17 -35z m-555 0 c0 -10 -3
-8 -9 5 -12 27 -12 43 0 25 5 -8 9 -22 9 -30z m158 -2 c-3 -8 -6 -5 -6 6 -1
11 2 17 5 13 3 -3 4 -12 1 -19z m530 0 c-3 -8 -6 -5 -6 6 -1 11 2 17 5 13 3
-3 4 -12 1 -19z"/>
</g>
</svg>
